# xmcd CD database file
#
# Track frame offsets:
#	182
#	19747
#	34972
#	59272
#	81322
#	100747
#	123772
#	148072
#	169055
#	185852
#	209722
#	224872
#	247747
#
# Disc length: 3598 seconds
#
# Revision: 1
# Processed by: cddbd v1.5.2PL0 Copyright (c) Steve Scherf et al.
# Submitted via: CDex 1.79
#
DISCID=c50e0c0d
DTITLE=Various Artist - ALTA TENSAO
DYEAR=1995
DGENRE=New Age
TTITLE0=Roula - lick it
TTITLE1=MDM dee /Move your body
TTITLE2=X-Kameron - why dont you want my love
TTITLE3=Les G.O. Culture - Darla Dirladada
TTITLE4=20 Fingers - Short Dick Man
TTITLE5=X-Kameron - I wanna be your lover
TTITLE6=Ruback - Dont Bring on the night
TTITLE7=Melomania - Flash in the night
TTITLE8=Marie Kingston - You Dont Love Me
TTITLE9=Gale Robinson - Im Freaky
TTITLE10=A'Lisa B - Im in Love
TTITLE11=Dania - She Wont Know
TTITLE12=Sisters N Brothers - Why Dont You Stay The Night
EXTD=YEAR: 1995
EXTT0=
EXTT1=
EXTT2=
EXTT3=
EXTT4=
EXTT5=
EXTT6=
EXTT7=
EXTT8=
EXTT9=
EXTT10=
EXTT11=
EXTT12=
PLAYORDER=
